<svg xmlns="http://www.w3.org/2000/svg" width="1100" height="1100" viewBox="0 0 1100 1100" version="1.1"><path d="M 370 109.959 C 338.793 114.378, 300.508 129.458, 274.500 147.575 C 154.379 231.253, 77.373 365.405, 65.028 512.500 C 63.729 527.980, 63.729 576.020, 65.028 591.500 C 76.521 728.437, 143.752 854.034, 251.049 939.012 C 311.828 987.148, 387.196 1021.692, 463.500 1036.387 C 497.430 1042.922, 520.115 1045, 557.500 1045 C 586.912 1045, 602.382 1044.051, 624.500 1040.891 C 679.424 1033.044, 726.420 1018.552, 776.500 994.021 C 931.444 918.124, 1035.401 765.111, 1049.972 591.500 C 1051.271 576.020, 1051.271 527.980, 1049.972 512.500 C 1042.246 420.449, 1008.782 331.519, 954.205 258 C 924.165 217.535, 884.701 178.858, 844.027 150.019 C 820.594 133.405, 796.877 122.279, 769 114.824 C 744.642 108.310, 755.226 108.635, 560 108.402 C 394.882 108.204, 381.628 108.313, 370 109.959 M 396.110 156.396 C 391.269 159.079, 391.073 160.464, 391.035 192.300 C 390.998 223.719, 391.357 226.505, 395.713 228.629 C 396.696 229.108, 430.383 229.725, 470.574 230 C 543.648 230.500, 543.648 230.500, 547.701 233.183 C 554.103 237.420, 556.505 242.162, 556.474 250.500 C 556.441 259.269, 555.271 261.513, 544.859 272.779 C 486.832 335.568, 440.129 413.078, 413.068 491.500 C 399.207 531.672, 397.515 543.306, 397.506 598.500 C 397.499 643.561, 397.906 647.576, 404.085 663.500 C 408.881 675.858, 418.183 694.373, 424.221 703.578 C 444.764 734.898, 471.922 750.798, 535.204 768.553 C 585.402 782.637, 603.613 790.496, 615.725 803.303 C 621.796 809.722, 623.288 812.479, 626.197 822.657 C 628.084 829.262, 628.431 832.867, 628.392 845.500 C 628.338 862.752, 625.838 875.873, 618.853 895.556 C 610.181 919.992, 604.984 926.662, 592.831 928.950 C 589.349 929.605, 576.150 930.386, 563.500 930.684 C 462.404 933.069, 366.347 895.650, 289.746 824.043 C 274.699 809.977, 251.655 782.158, 237.526 761 C 204.276 711.209, 184.160 657.220, 175.860 595.500 C 173.915 581.032, 173.575 574.105, 173.575 549 C 173.575 523.895, 173.915 516.968, 175.860 502.500 C 185.610 429.992, 212.357 366.443, 256.249 311.500 C 276.951 285.586, 291.564 270.900, 316.119 251.332 C 321.960 246.677, 327.248 241.752, 327.869 240.387 C 329.482 236.849, 329.425 186.028, 327.805 182.472 C 325.478 177.363, 318.590 175.618, 312.700 178.645 C 307.751 181.188, 291.019 193.255, 277.615 203.947 C 190.008 273.835, 131.319 377.579, 116.078 489.500 C 112.994 512.141, 112.021 526.422, 112.021 549 C 112.021 703.780, 193.087 847.305, 326 927.843 C 381.366 961.391, 445.241 982.739, 512.500 990.174 C 528.486 991.941, 582.514 991.941, 598.500 990.174 C 751.807 973.227, 881.639 884.744, 950.162 750.509 C 982.460 687.238, 998.979 619.049, 998.979 549 C 998.979 410.958, 934.387 280.867, 824 196.591 C 802.554 180.217, 798.723 178.346, 792.472 181.195 C 787.333 183.536, 787 185.587, 787 214.903 C 787 232.932, 787.378 242.735, 788.136 244.399 C 788.761 245.771, 792.923 249.795, 797.386 253.341 C 810.915 264.093, 825.886 277.950, 835.373 288.500 C 892.127 351.615, 924.061 420.113, 935.140 502.500 C 937.085 516.968, 937.425 523.895, 937.425 549 C 937.425 574.105, 937.085 581.032, 935.140 595.500 C 928.255 646.700, 913.899 690.794, 890.285 733.274 C 875.649 759.603, 860.505 780.847, 838.338 806.147 C 812.788 835.307, 775.777 863.888, 733.500 887.106 C 726.034 891.207, 724.995 891.500, 717.927 891.500 C 711.386 891.500, 709.802 891.135, 706.300 888.817 C 697.042 882.690, 695.656 875.122, 699.832 853.500 C 702.742 838.431, 703.800 812.034, 702.084 797.292 C 699.138 771.979, 691.687 757.695, 674.788 744.961 C 659.843 733.700, 641.891 725.824, 598.500 711.492 C 557.006 697.786, 545.460 692.928, 529.053 682.274 C 504.159 666.107, 491.542 644.650, 486.419 609.765 C 484.122 594.121, 484.887 556.768, 487.859 539.468 C 498.501 477.533, 525.312 413.604, 567.738 349 C 592.085 311.927, 607.666 293.238, 629.500 274.923 C 655.075 253.469, 676.117 242.595, 706.500 235.131 C 721.575 231.427, 721.771 231.344, 723.537 227.928 C 725.471 224.189, 725.708 164.647, 723.805 160.472 C 721.163 154.674, 731.034 154.997, 557.800 155.035 C 427.493 155.064, 398.065 155.312, 396.110 156.396 M 382.500 277.440 C 373.633 279.489, 365.032 282.715, 360.504 285.691 C 348.333 293.690, 323.739 315.330, 313.767 326.814 C 274.728 371.775, 253.396 409.971, 238.086 462.328 C 223.688 511.565, 221.614 565.602, 232.112 617.956 C 241.075 662.653, 263.293 712.387, 290.322 748.254 C 309.213 773.323, 321.995 787.256, 339.500 801.860 C 361.172 819.941, 376.643 830.593, 400.182 843.643 C 430.398 860.393, 472.894 874.678, 507.095 879.582 C 521.718 881.678, 527.550 880.940, 535.331 876.005 C 551.593 865.692, 553.421 840.076, 538.789 827.551 C 534.037 823.484, 532.346 822.825, 509 815.946 C 491.451 810.775, 471.243 803.319, 456.739 796.665 C 432.866 785.711, 411.338 769.251, 395.052 749.500 C 376.828 727.397, 357.036 686.884, 351.818 661 C 349.584 649.915, 349.501 647.770, 349.522 601.500 C 349.546 549.550, 350.092 541.978, 355.611 517 C 358.805 502.547, 369.804 469.311, 378.474 447.914 C 392.441 413.443, 411.846 375.297, 429.809 347 C 443.332 325.696, 444.500 323.037, 444.500 313.537 C 444.500 306.688, 444.070 304.624, 441.593 299.579 C 436.418 289.040, 429.420 283.101, 417.237 278.910 C 409.674 276.308, 390.849 275.511, 382.500 277.440 M 721.500 286.943 C 695.939 293.572, 684.143 299.751, 663 317.590 C 650.750 327.925, 642.683 336.680, 631.291 352 C 583.213 416.654, 549.788 489.549, 539.352 552.500 C 536.905 567.261, 536.817 601.174, 539.199 611.500 C 541.939 623.379, 544.792 629.612, 550.201 635.529 C 559.843 646.079, 571.386 651.499, 615 665.956 C 673.007 685.184, 697.192 697.107, 718.116 716.791 C 731.704 729.574, 740.345 742.897, 747.462 762.039 C 749.310 767.011, 752.034 772.667, 753.514 774.608 C 763.420 787.595, 782.258 790.713, 795.975 781.636 C 800.183 778.851, 811.820 765.316, 824.678 748.254 C 841.271 726.236, 859.379 692.909, 868.439 667.715 C 883.364 626.214, 889.314 593.233, 889.314 552 C 889.314 510.767, 883.364 477.786, 868.439 436.285 C 862.754 420.475, 851.677 397.739, 841.138 380.246 C 829.094 360.255, 807.861 332.852, 792.508 317.485 C 784.874 309.844, 766.484 294.308, 759.732 289.796 C 749.994 283.289, 738.810 282.455, 721.500 286.943" stroke="none" fill="#040404" fill-rule="evenodd"/><path d="M 396.110 156.396 C 391.269 159.079, 391.073 160.464, 391.035 192.300 C 390.998 223.719, 391.357 226.505, 395.713 228.629 C 396.696 229.108, 430.383 229.725, 470.574 230 C 543.648 230.500, 543.648 230.500, 547.701 233.183 C 554.103 237.420, 556.505 242.162, 556.474 250.500 C 556.441 259.269, 555.271 261.513, 544.859 272.779 C 486.832 335.568, 440.129 413.078, 413.068 491.500 C 399.207 531.672, 397.515 543.306, 397.506 598.500 C 397.499 643.561, 397.906 647.576, 404.085 663.500 C 408.881 675.858, 418.183 694.373, 424.221 703.578 C 444.764 734.898, 471.922 750.798, 535.204 768.553 C 585.402 782.637, 603.613 790.496, 615.725 803.303 C 621.796 809.722, 623.288 812.479, 626.197 822.657 C 628.084 829.262, 628.431 832.867, 628.392 845.500 C 628.338 862.752, 625.838 875.873, 618.853 895.556 C 610.181 919.992, 604.984 926.662, 592.831 928.950 C 589.349 929.605, 576.150 930.386, 563.500 930.684 C 462.404 933.069, 366.347 895.650, 289.746 824.043 C 274.699 809.977, 251.655 782.158, 237.526 761 C 204.276 711.209, 184.160 657.220, 175.860 595.500 C 173.915 581.032, 173.575 574.105, 173.575 549 C 173.575 523.895, 173.915 516.968, 175.860 502.500 C 185.610 429.992, 212.357 366.443, 256.249 311.500 C 276.951 285.586, 291.564 270.900, 316.119 251.332 C 321.960 246.677, 327.248 241.752, 327.869 240.387 C 329.482 236.849, 329.425 186.028, 327.805 182.472 C 325.478 177.363, 318.590 175.618, 312.700 178.645 C 307.751 181.188, 291.019 193.255, 277.615 203.947 C 190.008 273.835, 131.319 377.579, 116.078 489.500 C 112.994 512.141, 112.021 526.422, 112.021 549 C 112.021 703.780, 193.087 847.305, 326 927.843 C 381.366 961.391, 445.241 982.739, 512.500 990.174 C 528.486 991.941, 582.514 991.941, 598.500 990.174 C 751.807 973.227, 881.639 884.744, 950.162 750.509 C 982.460 687.238, 998.979 619.049, 998.979 549 C 998.979 410.958, 934.387 280.867, 824 196.591 C 802.554 180.217, 798.723 178.346, 792.472 181.195 C 787.333 183.536, 787 185.587, 787 214.903 C 787 232.932, 787.378 242.735, 788.136 244.399 C 788.761 245.771, 792.923 249.795, 797.386 253.341 C 810.915 264.093, 825.886 277.950, 835.373 288.500 C 892.127 351.615, 924.061 420.113, 935.140 502.500 C 937.085 516.968, 937.425 523.895, 937.425 549 C 937.425 574.105, 937.085 581.032, 935.140 595.500 C 928.255 646.700, 913.899 690.794, 890.285 733.274 C 875.649 759.603, 860.505 780.847, 838.338 806.147 C 812.788 835.307, 775.777 863.888, 733.500 887.106 C 726.034 891.207, 724.995 891.500, 717.927 891.500 C 711.386 891.500, 709.802 891.135, 706.300 888.817 C 697.042 882.690, 695.656 875.122, 699.832 853.500 C 702.742 838.431, 703.800 812.034, 702.084 797.292 C 699.138 771.979, 691.687 757.695, 674.788 744.961 C 659.843 733.700, 641.891 725.824, 598.500 711.492 C 557.006 697.786, 545.460 692.928, 529.053 682.274 C 504.159 666.107, 491.542 644.650, 486.419 609.765 C 484.122 594.121, 484.887 556.768, 487.859 539.468 C 498.501 477.533, 525.312 413.604, 567.738 349 C 592.085 311.927, 607.666 293.238, 629.500 274.923 C 655.075 253.469, 676.117 242.595, 706.500 235.131 C 721.575 231.427, 721.771 231.344, 723.537 227.928 C 725.471 224.189, 725.708 164.647, 723.805 160.472 C 721.163 154.674, 731.034 154.997, 557.800 155.035 C 427.493 155.064, 398.065 155.312, 396.110 156.396" stroke="none" fill="#b4dcac" fill-rule="evenodd"/></svg>