<?xml version="1.0" encoding="UTF-8"?>
<svg xmlns="http://www.w3.org/2000/svg" viewBox="0 0 400 400" width="400" height="400">
<path d="M172.89 101.37C168.31 98.5 164.82 108.24 164.11 111.27C163.62 113.39 164.02 115.91 163.85 118.09C163.45 123.19 162.7 128.39 162.08 133.52C161.7 136.66 162.4 139.89 160.82 142.76C158.87 146.31 146.04 147.2 143.38 144.28C140.36 140.94 141.41 137.97 141.92 134.09C142.77 127.61 143.11 121.31 144.86 115.13C145.87 111.54 145.97 107.81 147.09 104.19C149.95 94.92 153.07 85.57 157.8 76.86C160.05 72.72 162.02 66.78 166.38 64.25C172.48 60.73 179.82 60.52 186.85 59.93C190.2 59.65 200.94 57.4 203.68 59.14C206.17 60.73 204.57 63.48 204.05 65.47C202.68 70.74 198.9 75.51 197.09 80.69C193.49 91.01 189.9 101.1 187.11 111.63C185.26 118.6 184.81 129.46 181.85 135.63C179.48 140.56 173.09 143.51 167.85 143.9C164.66 144.14 163.76 139.93 164.04 137.53C164.15 136.64 164.77 136.03 164.93 135.16C165.33 133 164.9 130.6 165.05 128.4C165.18 126.52 165.87 124.8 165.96 122.92C166.17 118.91 165.34 114.02 167.12 110.29C168.47 107.45 173.3 104.82 172.89 101.37ZM213.52 58.98C217.17 59.32 220.82 59.66 224.47 60C225.27 60.74 226.69 61.55 226.97 62.65C227.64 65.21 225.86 66.52 225.08 68.54C223.45 72.72 222.18 78.07 219.71 81.82C218.04 84.36 213.09 85.31 213.05 88.58C216.49 91.02 220.3 85.04 221.75 82.74C225.37 77.01 226.66 61.28 236.7 63.02C240.1 63.62 247 65.99 247.64 69.97C247.97 71.96 246.17 74.02 245.1 75.46C241.97 79.68 238.72 88.23 234.37 90.78C233.44 90.27 232.01 89.22 231.05 89.04C228.96 88.65 223.65 91.03 225.57 93.7C227.62 93.59 231.01 91.45 232.67 93.74C234.1 95.71 229.92 101.65 229.15 103.63C225.21 113.76 223.38 120.47 212.64 125.15C210.58 126.05 208.52 128.13 206.21 127.83C205.02 125.36 207.77 110.07 209.11 107.35C210.54 104.47 214.09 103.64 214.85 100.27C210.83 97.13 207.01 106.41 206.14 109.13C203.97 115.91 205.57 124.99 200.54 130.58C198.86 132.44 195.63 133.22 193.47 134.12C191.06 135.12 189.31 136.29 186.48 135.99C182.96 131.54 187.4 118.94 188.83 113.77C192.27 101.38 195.2 88.98 200.73 77.46C203.07 72.58 204.34 66.4 208.37 62.43C209.93 60.9 211.97 60.33 213.52 58.98ZM160.93 65.57C161.18 68.95 158.5 71.59 157.17 74.42C155.18 78.62 152.56 83.12 151.06 87.6C148.2 96.16 145.11 104.53 143.11 113.43C142.34 116.84 141.6 120.64 141.08 124.03C140.81 125.79 141.24 127.64 140.84 129.4C140.09 132.71 139.04 138.21 139.02 141.55C137.77 142.79 137.34 145.13 135.48 145.89C134.24 146.4 119.23 148.03 117.44 147.96C114.99 145.02 115.99 140.13 115.99 136.44C115.97 124.86 119.95 111.82 126.24 102.3C128.47 98.92 131.92 99.62 134.61 95.41C134.25 94.95 133.88 94.49 133.52 94.02C128.55 94.39 124.57 101.56 122.29 105.28C120.74 107.82 120.76 110.55 116.96 109.77C116.96 107.34 116.96 104.9 116.96 102.47C116.51 102.15 116.07 101.83 115.62 101.51C113.4 101.91 110.2 104.06 110.04 106.48C111.33 107.46 112.07 106.15 113.42 106.02C116.24 108.97 115.08 123.47 114.28 127.67C113.1 133.86 114.75 140.93 112.86 147.01C112.47 148.24 110.86 150.24 109.69 150.82C107.52 151.9 93.03 157.99 91.51 158.02C90.53 157.13 89.47 155.99 89.1 154.69C88.5 152.63 89.58 151.09 89.91 149.22C90.27 147.18 89.72 145.05 90.16 143.01C90.71 140.47 91.53 137.84 91.91 135.28C95.39 111.87 112.51 89.53 132.67 76.6C139 72.54 145.17 69.59 152.05 66.75C154.33 65.81 158.78 63.35 160.93 65.57ZM280.86 96.62C279.27 99.88 275.29 96.82 273.1 97.35C273.33 97.82 273.56 98.3 273.79 98.77C270.99 99.01 268.19 99.26 265.39 99.5C265.66 99.88 265.93 100.26 266.2 100.64C262.94 102.26 259.02 102.8 255.55 104.12C248.98 106.61 242.66 110.12 236.39 113.11C233.65 114.41 229.58 118.21 226.3 116.95C225.12 113.31 228.76 109.49 229.96 106.38C233.67 96.82 239.64 88.55 244.82 79.5C246.79 76.06 249.08 71.45 253.7 71.56C257.22 71.63 259.74 74.81 262.36 76.81C267.72 80.9 273.64 85.91 277.81 91.32C279.1 93.01 279.71 94.96 280.86 96.62ZM181.05 74.34C176.7 72.85 169.09 86.31 171.51 89.95C172.59 89.85 173.51 89.32 173.9 88.2C174.56 86.28 174.86 84.13 176.07 82.4C177.68 80.1 182.7 77.68 181.05 74.34ZM301.55 84.39C302 86.03 302.45 87.67 302.9 89.32C302.45 90.96 302 92.6 301.55 94.25C301.17 92.6 300.78 90.96 300.39 89.32C300.78 87.67 301.17 86.03 301.55 84.39ZM257.14 90.78C256.51 88.7 255.63 87.64 253.33 88.29C251.93 93.59 259.5 92.08 262.44 93.15C264.04 93.74 267.54 95.54 268.92 94.43C264.99 93.21 261.07 91.99 257.14 90.78ZM260.91 98.45C258.31 97.41 243.94 95.46 245.3 100.83C247.45 100.23 249.96 98.11 252.24 98.13C255.02 98.15 258.14 100.13 260.91 98.45ZM296.95 243.47C297.35 241.45 298.82 239.46 298.91 237.26C298.96 235.92 298.14 234.91 298.01 233.61C297.53 228.74 298.77 222.99 302.15 219.42C305.31 216.08 315.75 214.75 316.92 208.66C317.6 205.09 314.19 197.24 311.99 194.48C310.67 192.82 309.87 190.36 307.3 191.23C309.03 194.75 316.01 205.86 314.82 209.07C312.08 216.52 300.89 215.74 297.26 223.67C294.77 229.11 297.91 234.89 296.8 240.52C293.33 243.2 286.31 244.57 282.19 242.56C281.55 240.06 283.09 238.34 282.97 235.8C282.92 234.71 282.29 233.9 282.11 232.86C281.41 228.71 282.23 223.38 285.19 220.34C290.23 215.18 295.66 217.02 300.1 209.31C300.97 207.8 301.64 205.27 300.83 203.43C295.34 191 282.73 182.6 276.24 170.68C272.58 163.96 273.88 156.23 272.94 148.86C272.37 144.38 270.67 139.47 268.81 135.41C265.68 128.62 260.89 122.28 257.85 115.31C256.79 112.87 255.08 110.44 256.05 107.58C258.65 105.51 263.45 104.72 266.66 103.91C270.26 103.01 276.76 100.07 280.53 101.02C284.06 101.91 287.25 106.75 289.17 109.55C295.04 118.09 297.73 127.74 301.16 137.43C301.79 139.22 302.79 141.28 303 143.25C304 152.56 299.62 161.66 304.25 170.42C309.53 180.43 319.79 187.37 326.3 196.62C328.77 200.14 333.37 203.99 332.84 208.77C332.01 216.35 318.9 216.88 314.24 221.28C307.26 227.87 319.53 243.23 308.82 244.99C307.21 245.25 305.38 245.03 303.74 245.03C301.9 245.03 298.29 244.59 296.95 243.47ZM79.45 106.27C79.92 106.95 80.39 107.63 80.85 108.31C80.39 109.2 79.92 110.08 79.45 110.97C79.04 110.2 78.62 109.44 78.21 108.68C78.62 107.88 79.04 107.07 79.45 106.27ZM302.65 110.09C303.01 111.21 303.38 112.33 303.74 113.46C303.37 114.54 302.99 115.63 302.61 116.71C301.6 115.07 301.2 111.62 302.65 110.09ZM251.51 169.94C248.98 167.49 249.16 165.05 247.49 162.18C244.06 165.75 244.36 175.07 250.79 175.97C257.29 176.88 260.12 165.56 266.48 165C270.18 164.67 271.92 169.09 273.39 171.72C277.39 178.85 292.06 189.29 290.96 197.6C288.72 199.57 287.31 198.17 284.75 198.04C278.51 197.72 272.92 194.38 266.48 195.17C263.33 199.66 267.92 205.96 271.6 208.97C272.04 208.42 272.47 207.86 272.91 207.31C272.5 204.83 271.41 202.81 272.33 200.17C274.91 199.7 277.28 201.29 279.71 201.88C282.79 202.62 286.1 203.37 289.13 203.93C293.56 204.75 296.67 203.73 298.88 208.4C294.18 214.49 285.89 214.63 281.34 221.27C277.97 226.18 281.97 233.69 279.91 238.38C278.55 241.5 274.04 241.95 271.23 242.17C266.69 242.51 261.82 242.51 257.33 243.15C254.32 243.57 251.18 244.43 248.22 244.58C247.9 243.27 248.24 241.88 247.92 240.6C246.91 236.65 243.4 233.12 245.06 228.51C247.6 221.43 258.67 220.13 255.95 210.65C253.31 201.47 238.76 191.57 235.06 181.61C232.43 174.55 233.78 167.68 232.93 160.2C232.59 157.11 230.96 150.74 229.91 147.7C227.85 141.77 225.08 136.22 223.91 129.87C223.47 127.45 222.12 125.39 224.23 123.22C226.39 121 238.89 115.35 242.3 113.86C244.22 113.01 245.86 111.45 248.22 112.03C251.37 112.8 254.12 116.35 256.28 118.7C262.03 124.95 272.58 144.34 270.95 152.86C270.04 157.62 264.98 158.83 261.43 161.14C257.81 163.49 254.76 167.08 251.51 169.94ZM319.48 112.33C319.96 114.4 320.45 116.47 320.93 118.54C320.44 120.04 319.95 121.54 319.45 123.04C318.96 121.17 318.46 119.31 317.97 117.44C319.61 116.07 318.57 114.08 319.48 112.33ZM233.73 186.85C229.5 187.94 223.86 182.8 223.02 178.65C222.24 174.82 223.65 171.12 223.87 167.49C223.95 166.01 223.16 164.46 222.65 163.12C220.49 165.42 221.31 168.57 220.97 171.51C220.79 173.03 220.01 174.29 220.19 175.89C221.22 185.55 232.05 194.5 239.39 199.87C242.93 202.46 248.35 204.3 250.69 208.29C254.98 215.62 245.63 221.12 243.21 228.1C241.54 232.89 246.62 237.55 244.85 242.08C244.01 244.25 241.98 244.61 240.55 246.03C238.9 246.03 237.72 246.7 236.16 246.94C229.72 247.95 221.77 249.08 215.26 247.85C214.27 244.09 212.98 233.43 215.12 230.28C218.3 225.59 224.9 222.57 225.36 216.42C226.05 207.12 215.9 196.1 214.06 187.21C213.33 183.68 212.66 180.38 213.07 176.63C213.28 174.69 214.07 173.26 213.96 171.14C213.88 169.48 212.97 167.07 211.32 167C211.08 175.54 210.84 184.08 210.59 192.62C207.03 194.1 203.56 187.77 203.02 185.02C201.85 179.14 203.37 173.07 201.89 167.19C199.84 159.03 190.26 146.45 192.29 138.26C197.86 136.42 203.58 133.35 208.8 130.82C211.2 129.66 214.44 127.05 217.33 128.06C220.83 129.28 222.84 134.85 224.17 137.67C227.4 144.52 231.38 154.71 231.86 162.37C232.12 166.42 231.01 170.62 231.03 174.79C231.04 178.29 234.72 184.18 233.73 186.85ZM286.58 163.59C287.82 161.87 286.79 158.31 287.13 156.16C288.1 150.15 290.45 143.56 288.13 137.55C287.49 135.9 286.76 132.34 284.62 132.05C282.85 134.41 284.86 136.95 285.02 139.36C285.29 143.36 286.18 147.33 285.87 151.36C285.54 155.49 283.94 159.85 286.58 163.59ZM68.49 135.47C69 139.81 69.51 144.15 70.02 148.49C72.33 150.51 75.37 150.41 78.18 151.42C75.78 153.01 71.96 150.86 70.27 154.1C68.37 157.72 70.18 162.49 67.4 165.79C66.37 161.58 67.02 157.36 65.72 153.24C63.54 152.41 58.96 152 58.08 151.42C60.08 150.67 62.99 150.8 64.76 149.72C67.43 148.08 67.64 138.83 68.49 135.47ZM328.58 141.6C330.88 145.05 328.4 151.39 332.32 153.75C334.26 154.92 337.01 154.68 339.17 155.43C337.42 156.41 335.59 155.65 333.73 156.09C332.92 156.28 332.16 156.97 331.33 157.26C329.64 162.28 330.09 167.63 328.58 172.71C326.51 169.09 329.26 160 325.6 157.13C323.38 155.38 320.73 156.64 318.36 155.47C321.1 153.94 324.43 154.76 326.97 152.51C327.51 148.87 328.05 145.24 328.58 141.6ZM183.2 142.06C189.11 143.5 191.8 149.5 194.27 154.39C197.15 160.11 200.06 166.49 200.97 172.97C201.47 176.51 200.95 180.35 201.04 183.93C201.12 187.46 203.75 190.06 202.83 193.79C198.41 195.16 191.69 190.79 190.12 186.38C189.69 185.18 189.85 183.37 189.88 182.1C189.94 179.64 191.23 173.86 188.31 172.91C186.38 173.85 187.14 176.19 186.89 178.03C186.07 183.88 186.92 186.74 190.25 191.67C191.41 193.39 193.35 194.76 194.81 196.22C200.99 202.4 213.32 211.97 216.82 219.49C219.14 224.48 213.9 227.87 212.21 231.79C210.65 235.39 212.28 241.93 210.85 244.64C209.54 247.11 204.95 247.46 202.59 246.86C195.61 245.07 188.64 243.7 182.1 240.69C180.77 236.46 175.91 231.56 177 226.9C178.15 221.94 183.39 221.69 182.97 214.98C182.56 208.39 177.11 199.1 176.97 193.06C176.94 191.45 176.31 189.89 176.32 188.31C176.35 185.45 179.11 174.23 173.42 175.16C171.94 178.36 173.94 182.08 173.93 185.39C173.92 186.88 173.22 187.98 173.06 189.41C172.85 191.26 172.87 194.02 170.66 194.91C167.73 196.08 163.64 191.84 162.99 189.39C161.67 184.43 162.79 179.45 161.94 174.43C160.96 168.62 155.45 156.09 157.02 150.7C157.96 147.46 162.12 148.17 164.57 147.97C171.12 147.43 177.03 143.6 183.2 142.06ZM143.38 183.96C142.02 182.39 140.64 179.16 138.63 178.91C136.48 181.6 140.16 187.16 143.24 187.92C147.96 189.08 151.8 184.88 156.48 185.33C161.27 185.8 165.98 196.71 168.42 200.69C169.67 202.73 172.3 205.19 171.87 207.74C169.25 209.11 166.73 206.97 164.51 206.1C160.21 204.43 156.01 202.06 151.42 201.18C151 201.51 150.59 201.85 150.18 202.19C149.87 204.51 151.46 209.71 154.7 209C154.95 207.66 155.19 206.33 155.43 204.99C159.07 205.44 163.18 208.48 166.5 209.89C169.12 211.01 171.98 211.74 174.53 212.82C176.49 213.65 179.57 214.53 179.98 217.21C180.51 220.67 176.44 222.55 175.16 225.37C173.54 228.91 175.86 232.47 177.49 235.43C177.05 236.44 176.36 237.72 175.16 237.94C173.49 238.24 166.07 234.95 164.13 234.23C160.83 233 151.38 232.45 149.36 230.73C143.02 225.36 143.2 215.55 139 210.8C137.93 213.09 141.94 221.98 143.1 224.49C143.85 226.11 145.02 229.14 143.11 230.59C139.83 233.09 131 231.6 126.95 232.06C125.14 232.27 123.8 233.01 121.83 233.01C120.12 233.01 117.13 233.61 115.61 232.72C112.86 231.11 107.89 221.37 105.84 218.37C97.91 206.79 93.46 193.34 90.91 179.56C90.03 174.77 88.74 168.96 91.11 164.32C92.94 160.76 98.31 159.44 101.47 157.92C104.88 156.3 112.48 151.92 116.33 153.04C120.23 154.18 120.49 160.67 121.08 163.72C122.32 170.12 124.65 186.64 127.83 191.51C125.71 191.51 123.59 191.51 121.46 191.51C119.98 193.49 121.06 195.45 122.56 197.01C123.9 196.47 125.24 195.94 126.58 195.4C132.56 198.33 131.82 201.15 135.71 204.82C136.47 202.49 130.29 193.14 129.14 190.34C126.21 183.23 125.23 175.54 123.9 167.85C122.77 161.32 120.97 157.77 123.29 151.13C129.35 149.17 136.53 149.06 143.01 148.97C145.05 148.95 148.72 148.3 150.57 149.18C156.65 152.09 157.47 163.94 159.16 169.36C160.12 172.45 161.55 176.64 159.8 179.73C158.73 181.62 156.49 180.86 154.7 181.1C150.82 181.62 147.31 184.46 143.38 183.96ZM107.35 172.24C101.53 171.89 104.39 189.57 108.96 187.58C108.85 185.04 106.27 177.66 108.87 175.53C108.37 174.43 107.86 173.33 107.35 172.24ZM348.68 174.22C349.79 175.02 350.09 175.44 349.77 176.81C349.28 176.84 348.8 176.87 348.31 176.89C348.07 176.44 347.83 175.98 347.6 175.53C347.96 175.09 348.32 174.65 348.68 174.22ZM56.44 191.77C57.05 193.3 57.65 194.82 58.26 196.35C56.95 197.6 57.43 198.85 56.44 200.14C55.7 199 54.97 197.85 54.24 196.71C54.97 195.06 55.7 193.42 56.44 191.77ZM115.98 206.12C115.56 210.43 119.5 218.44 124.38 218.84C125.09 217.95 125.18 216.86 124.83 215.73C124.34 214.16 122.48 213.6 121.41 212.66C119.57 211.06 119.27 207.91 117.7 206.42C117.12 205.87 116.66 206.08 115.98 206.12ZM67.4 220.96C68.63 222.96 67.86 223.36 70.12 224.47C67.68 225.98 68.96 225.62 67.4 227.59C66.46 225.44 66.46 225.64 64.5 224.47C65.26 224.23 66.02 223.99 66.77 223.74C66.98 222.82 67.19 221.89 67.4 220.96ZM334.43 224.11C335.46 226.43 333.97 230.22 336.55 231.67C338 232.49 339.83 231.64 341.29 232.51C339.68 232.75 338.06 233 336.45 233.24C334.9 235.54 335.63 237.75 334.43 240.04C332.23 237.96 333.47 235.52 331.51 232.95C330 232.95 328.5 232.95 327 232.95C328.05 231.22 331.16 232.28 332.97 230.48C333.46 228.36 333.94 226.23 334.43 224.11ZM150.68 258.88C146.18 259.19 141.89 258.79 137.53 259.81C135.21 258.7 134.8 255.09 132.42 255.02C131.62 256.28 131.91 257.96 132.68 259.11C135.8 263.75 139.03 261.99 144.47 262.03C145.69 262.04 147.34 261.7 148.45 262.3C152.62 264.57 150.21 268.23 150 271.6C149.84 273.99 150.55 276.66 149.71 278.9C147.7 279.18 135.86 273.19 134.04 271.6C133.97 269.89 133.99 268.83 132.42 267.91C132.05 268.35 131.69 268.79 131.32 269.24C132.16 275.59 138.87 279.7 142.82 284.42C144.47 286.39 145.72 288.62 147.11 290.71C148.84 293.32 150.82 296.4 149.59 299.76C145.49 300.55 140.14 296 136.7 294.16C132.46 291.9 122.36 288.13 120.22 283.58C119.05 281.08 121.47 274.87 121.94 272.31C122.86 267.29 122.07 261.36 122.02 256.26C121.98 252.12 118.85 240.69 120.31 237.73C121.92 234.45 131.56 234.28 134.98 234.1C138.64 233.91 149.96 234.14 152.68 236.19C153.64 236.92 154.56 238.7 154.75 239.84C154.82 240.22 153.12 253.77 152.91 254.69C152.55 256.26 151.71 257.7 150.68 258.88ZM187.95 275.8C184.6 281.85 182.43 289 184.81 296.12C185.36 297.79 185.54 300.49 187.03 301.55C186.53 303.09 188.04 305.49 189.22 306.3C188.16 310.49 196.34 316.56 195.94 321.64C193.76 322.3 190.63 319.91 188.56 319.07C176.86 314.33 173.9 304.02 169.3 293.45C168.85 292.42 168.28 289.17 168.38 288.05C168.51 286.57 174.65 280.28 168.57 280C165.59 282.82 166.73 285.52 166.96 289.13C167.28 294.02 173.58 308.7 176.9 312.51C174.07 314.3 169 310.55 166.55 309.26C157 304.24 155.9 302.11 153.95 291.55C153.27 287.88 152.17 283.84 152.04 280C151.92 276.47 153.14 270.72 151.96 267.58C153.76 266.69 152.68 264.02 153.27 262.3C154.07 259.97 153.67 257.91 154.04 255.53C154.58 252.07 155.33 248.42 155.92 244.92C156.32 242.57 156.02 238.77 159.07 238.03C162.99 237.08 166.61 238.83 170.13 239.87C176.32 241.71 182.65 243.03 188.4 245.76C190.9 246.95 195.41 246.78 196 250.5C196.87 256 192.1 266.33 189.73 271.37C189.06 272.8 187.99 274.17 187.95 275.8ZM309.76 250.41C310.67 254.4 307.35 266 305.74 270.08C304.21 270.08 302.69 270.08 301.16 270.08C301.16 270.77 301.16 271.45 301.16 272.14C302.27 272.14 303.37 272.14 304.47 272.14C306.67 273.89 307.59 277.68 308.07 280.32C308.22 281.15 308.86 281.71 308.97 282.57C310.64 294.95 299.52 300.06 289.51 302.09C286.4 302.72 282.07 304.67 279.27 303.02C277.43 303.41 274.81 305.48 273.06 304.63C273.36 304.21 273.66 303.79 273.97 303.38C272.09 303.24 268.63 306.85 266.74 307.84C263.32 309.62 259.63 310.8 256.38 313.19C254 314.94 251.87 317.52 249.32 318.93C248.66 317 249.81 315.84 249.95 313.97C250.09 312.17 249.41 308.74 248.87 307.01C247.05 301.19 243.31 293.82 243 287.67C242.75 282.57 244.2 271.1 242.74 267.01C240.3 269.74 243.88 286.3 236.89 285.01C235.99 284.84 235.07 284.02 234.16 283.65C233.89 282.86 233.23 282.2 233.03 281.45C231.95 277.52 235.18 273.78 233.61 270.1C232.19 271.15 232.43 271.82 231.84 273.33C228.78 281.16 233.04 288.93 236.75 295.68C239.84 301.31 245.26 305.69 247.85 311.58C250.61 317.88 241.95 328.91 237.63 332.96C235.54 331.32 234.37 329.15 232.66 327.16C230.98 325.2 228.82 323.67 227.19 321.65C221.21 314.21 218.93 304.34 218.97 294.98C219 288.62 223.76 283.17 223.99 278.17C224.08 276.11 226.07 273.1 223.38 272.1C221.71 275.93 221.34 290.17 214.25 288.77C211.77 282.82 217.08 276.34 215.71 270.31C215.1 273.16 214.49 276.02 213.88 278.88C211.6 280.64 212.73 285.53 207.31 284.9C204.87 281.9 202.17 278.86 203.1 274.53C203.64 272.03 206.56 265.3 205.58 263.2C205.06 263.66 204.54 264.13 204.02 264.6C203.34 266.57 202.66 268.53 201.98 270.5C201.99 279.68 199.7 286.2 210.59 288.03C212.8 290.6 213.32 300.75 215.22 304.76C218.68 312.07 222.99 319.17 228.37 325.59C230.39 328 235.33 331.31 235.89 334.43C233.79 336.24 229.23 333.45 227.03 333.04C218.95 331.53 210.28 328.63 203.39 323.9C200.65 322.01 198.43 318.78 195.98 316.71C193.3 311.96 190.62 307.21 187.95 302.47C188.07 301.1 187.52 298.89 188.29 297.67C190.21 294.65 193.34 296.68 195.4 297.91C200.63 301.04 206.73 307 209.81 312.37C210.88 314.24 212.26 317.58 214.61 318.09C215.5 315.48 210.77 311.68 209.24 309.68C205.1 304.3 200.01 296.09 193.66 293.12C192.13 292.41 190 292.2 188.34 291.69C187.66 289.62 186.98 287.55 186.3 285.48C192.9 278.52 193.88 268.12 196.86 259.51C197.78 256.86 196.98 251.53 200.27 250.12C203.06 248.92 206.87 251.8 209.5 251.97C211.87 252.13 215.52 252.31 217.53 253.57C217.78 255.94 218.02 258.31 218.26 260.68C220.02 258.79 218.44 254.78 221.29 253.23C222.59 252.52 224.49 253.17 225.94 252.84C229.41 252.05 239.71 249.96 242.74 251.31C243.09 252.4 243.84 253.67 243.91 254.8C244.13 258.09 241.45 262.93 243.47 265.94C245.53 263.92 243.17 251.49 247.25 249.25C249.38 248.08 254.36 248.34 256.83 247.86C259.44 247.35 267.03 245.65 269.4 246.16C276.38 247.68 277.2 254.45 278.09 260.26C278.25 261.28 279.03 262.1 278.85 263.2C278.71 264.05 278.07 264.85 277.86 265.75C275.74 266.94 273.42 267.16 271.33 268.21C267.99 269.89 264.4 272.9 260.64 273.85C259.3 272.6 257.96 271.34 256.62 270.09C254.78 271.19 255.07 272.54 255 274.52C255.8 275.21 256.7 276.66 257.73 276.94C260.76 277.76 263.07 275.24 265.48 274.11C269.85 272.04 273.46 269.95 278.54 269.98C281.21 272.76 283.39 282.78 278.47 284.86C272.55 287.38 253.55 282.5 257.45 294.9C258.15 294.9 258.85 294.9 259.54 294.9C262.9 286.25 264.9 289.55 273.06 288.95C275.75 288.76 277.87 287.27 280.68 288.4C283.44 296.11 274.95 298.83 274.16 302.92C279.73 300.83 279.15 295.72 281.97 293.52C282 292.04 282.77 291.14 282.94 289.77C283.59 284.48 283.55 280.14 283.01 274.89C282.88 273.57 283.23 272.08 282.88 270.79C281.37 265.22 280.53 259.53 278.88 253.92C278.1 251.24 276.75 249.35 277.08 246.35C279.27 245.31 283.01 245.97 285.48 245.97C292.65 245.98 303.8 246.9 309.76 250.41ZM90.41 253.28C92.91 258.06 88.29 259.1 94.91 261.37C93.93 262.4 91.7 262.82 91.12 264.4C90.51 266.06 91.36 267.76 90.41 269.37C88.62 267.7 89.15 265.81 88.89 263.56C87.71 262.83 86.53 262.1 85.35 261.37C90.19 259.61 89.14 258.24 90.41 253.28ZM176.81 256.26C170.78 254.71 168.45 268.11 170.41 271.95C173.14 271.09 172.43 267.91 173.13 265.77C174.35 262.04 178.67 260.97 176.81 256.26ZM295.07 256.26C294.43 256.62 293.79 256.99 293.14 257.35C292.77 260.64 291.31 265.7 294.61 267.87C295.27 266.17 296.41 257.2 295.07 256.26ZM328.91 264.23C328.91 265.71 328.91 267.2 328.91 268.68C329.95 268.92 330.98 269.16 332.01 269.41C331.1 269.65 330.2 269.89 329.29 270.14C329.05 271.48 328.8 272.82 328.55 274.16C326.24 269.38 328.67 272.25 324.45 269.41C325.47 269.1 326.48 268.79 327.49 268.48C327.96 267.07 328.44 265.65 328.91 264.23ZM296.44 277.06C293.88 279 295.28 288.49 293.85 292.21C292.71 295.18 288.58 297.94 288.04 299.18C289.68 299.8 292 296.57 293.06 295.36C296.58 291.33 294.86 288.34 296.07 283.81C296.7 281.48 299.59 278.79 296.44 277.06ZM267.58 319.85C268.51 322.94 266.61 328.37 270.54 329.85C271.63 330.26 272.82 329.94 273.95 330.41C272.44 330.72 270.92 331.03 269.41 331.34C268.02 334.26 268.6 336.31 267.58 339.08C265.76 336.69 266.68 333.32 264.66 331.1C263.32 330.87 261.99 330.64 260.65 330.41C262.35 329.87 264.05 329.33 265.75 328.79C266.36 325.81 266.97 322.83 267.58 319.85ZM257.88 324.06C257.88 325.02 257.88 325.99 257.88 326.96C256.61 326.96 255.34 326.96 254.08 326.96C254.08 325.99 254.08 325.02 254.08 324.06C255.34 324.06 256.61 324.06 257.88 324.06Z" fill="#ffffff" fill-rule="evenodd" stroke="#ffffff" stroke-width="0.25" stroke-linejoin="round"/>
<path d="M220.3 22.85C219.39 22.96 218.48 23.08 217.57 23.2C220.12 23.49 222.66 23.78 225.21 24.07C225.41 23.82 225.61 23.57 225.81 23.32C227.76 23.91 229.69 23.56 231.65 23.92C237.53 25 243.68 26.38 249.46 27.97C265.38 32.35 279.85 39.54 294.06 47.8C294 48.01 293.94 48.22 293.88 48.43C296.07 49.83 298.26 51.24 300.46 52.65C300.43 52.39 300.4 52.13 300.38 51.87C306.07 56.2 311.76 60.54 317.46 64.87C317.36 65.11 317.26 65.34 317.17 65.57C319.63 67.92 322.1 70.27 324.57 72.62C324.8 72.51 325.04 72.41 325.28 72.3C326.2 73.24 327.12 74.18 328.04 75.11C327.9 75.34 327.76 75.57 327.62 75.8C330.25 78.6 332.88 81.4 335.51 84.2C335.63 83.9 335.75 83.6 335.86 83.3C338.39 87.67 346.34 93.8 347.06 98.57C346.76 98.41 346.45 98.24 346.14 98.08C347.96 100.76 349.78 103.44 351.6 106.12C351.71 105.81 351.82 105.5 351.94 105.19C354.42 110.54 357.85 116.45 360.98 121.29C362.12 123.04 362.35 125.55 363.36 127.42C367.62 135.35 369.76 144.24 372.24 152.86C373.78 158.21 377.07 168.75 376.39 174.19C375.24 175.42 376.26 179.23 376.44 181.02C376.63 179.98 376.83 178.94 377.02 177.9C377.74 189.11 378.55 200.37 377.98 211.69C377.86 213.97 377.17 216.16 377.02 218.45C376.82 218.08 376.63 217.72 376.44 217.35C376.32 219.06 376.19 220.76 376.07 222.47C376.38 222.34 376.69 222.22 377 222.1C375.24 227.43 375.4 233.24 373.98 238.68C370.08 253.62 365.02 268.83 357.19 282.37C357.03 282.07 356.87 281.78 356.71 281.48C355.72 283.3 354.73 285.12 353.74 286.94C353.93 287.04 354.13 287.14 354.33 287.23C350.86 292.69 347.39 298.15 343.93 303.61C343.68 303.44 343.44 303.27 343.2 303.11C340.76 306.18 338.33 309.26 335.89 312.33C336.32 312.12 336.75 311.92 337.18 311.71C334.41 314.83 331.64 317.94 328.88 321.05C328.66 320.92 328.44 320.8 328.22 320.67C324.08 324.6 319.94 328.54 315.8 332.47C316.09 332.62 316.38 332.78 316.67 332.93C311.69 336.66 306.71 340.38 301.74 344.11C301.79 343.8 301.85 343.5 301.91 343.2C299.05 345.02 296.19 346.85 293.34 348.68C293.7 348.85 294.07 349.02 294.43 349.19C292.69 349.64 291.25 351.15 289.71 351.97C285.39 354.25 280.93 356.74 276.54 358.9C267.8 363.21 258.46 365.9 249.31 369.04C246.94 369.85 244.42 369.76 242.03 370.46C242.02 370.23 242.02 370.01 242.01 369.78C240.25 369.7 237.84 368.42 237.48 366.58C238.02 366.24 238.55 365.91 239.09 365.57C239.13 365.3 239.17 365.03 239.21 364.76C245.08 363.17 250.94 361.59 256.8 360C258.53 358.03 264.76 356.86 267.4 355.82C273.42 353.43 279.81 350.05 285.58 346.75C304.21 336.12 325.03 319.43 337.18 301.24C340.01 297 348.22 288.02 349.05 283.29C351.36 279.33 353.67 275.37 355.98 271.42C356.96 269.22 357.93 267.03 358.9 264.84C359.27 263.99 359.63 263.14 360 262.28C360.97 259.6 361.95 256.93 362.92 254.25C362.67 250.9 365.13 247.25 365.85 244.06C367.87 235.19 370.79 225.86 370.9 216.62C371.04 217.47 371.18 218.33 371.32 219.18C371.84 216.44 372.36 213.7 372.88 210.96C372.43 210.9 371.98 210.84 371.52 210.78C371.5 202.13 371.48 193.49 371.46 184.84C371.73 184.78 372 184.72 372.28 184.66C371.96 181.86 371.64 179.06 371.32 176.26C371.18 178.14 371.03 180.03 370.89 181.92C371.02 172.2 367.69 158.51 364.78 149.33C363.76 146.11 359.82 137.4 360 134.79C357.78 132.81 354.43 122.92 352.8 119.6C348.48 110.79 342.4 102.67 336.81 94.65C334.06 90.7 324.74 82.87 323.65 79.09C322.68 78.11 321.7 77.14 320.73 76.16C312.45 69.47 304.17 62.77 295.89 56.07C293.09 54.37 290.29 52.66 287.49 50.96C285.05 49.62 282.62 48.28 280.18 46.94C278.23 45.97 276.29 44.99 274.34 44.02C272.15 43.04 269.95 42.07 267.76 41.1C266.91 40.73 266.06 40.37 265.21 40C262.9 40.19 259.55 38.19 257.49 37.24C253.39 35.35 238.99 31.76 234.33 31.13C232.21 30.85 223.79 30.18 222.83 28.92C223.07 28.84 223.31 28.76 223.56 28.68C220.94 28.42 218.32 28.16 215.71 27.9C215.65 28.12 215.59 28.33 215.53 28.55C215.04 28.47 214.55 28.39 214.06 28.31C213.11 28.23 212.15 28.16 211.19 28.08C204.96 28.13 198.73 28.18 192.49 28.23C191.4 28.26 190.31 28.28 189.22 28.31C189 28.4 188.78 28.49 188.55 28.59C188.35 28.33 188.15 28.07 187.95 27.82C185.57 28.1 183.2 28.39 180.82 28.68C181.55 28.82 182.28 28.97 183.01 29.12C176.25 29.1 164.64 31.53 158.36 33.83C152.63 35.93 146.4 37.08 140.65 39.05C124.64 44.56 101.98 58.57 89.16 70.23C83.05 75.79 76.47 82.03 71.26 88.42C69.19 90.96 63.52 100.07 61.19 101.19C61.27 102.83 57.25 107.87 56.15 109.59C51.94 116.19 48.89 123.44 45.2 130.23C44.09 132.28 42.85 138.93 41.1 139.91C41.32 143.39 37.22 152.59 36.19 156.55C33.21 168 31.8 179.85 31.09 191.78C30.89 190.48 30.7 189.18 30.5 187.88C30.45 194.35 30.4 200.83 30.35 207.31C30.62 207.37 30.89 207.43 31.15 207.49C31.87 211.23 31.73 214.87 32.22 218.63C33.17 225.92 34.43 233.1 36.16 240.18C36.93 243.36 40.4 251.5 40 254.25C41.38 255.16 41.46 257.88 42.2 259.37C44.09 263.19 45.49 267.26 47.28 271.1C52.02 281.24 57.98 290.5 64.4 299.62C66.36 302.4 69.24 304.8 70.91 307.76C70.59 307.76 70.27 307.76 69.95 307.76C71.25 309.72 72.55 311.68 73.84 313.64C73.29 314.25 72.61 314.03 71.84 314.28C70.79 314.62 70 315.53 68.74 315.03C66.76 314.24 60.01 304.55 58.42 302.28C59.32 301.72 52.47 292.2 51.36 290.23C51.18 290.53 51 290.84 50.82 291.14C48.97 287.92 47.12 284.71 45.27 281.49C45.51 281.24 45.76 280.98 46 280.73C44.73 278.33 43.46 275.93 42.19 273.53C42.08 273.91 41.97 274.29 41.86 274.67C40.44 270.97 38.37 267.5 36.99 263.85C34.38 256.96 32.12 249.8 30.02 242.7C27.15 233.04 27.25 222.89 25.11 212.97C25.45 213.03 25.8 213.09 26.15 213.15C26.14 203.29 26.14 193.42 26.13 183.56C25.79 183.87 25.46 184.17 25.12 184.47C25.38 183.01 25.65 181.55 25.91 180.09C26.96 178.95 28.64 168.72 27.39 167.89C28.46 166.16 29.11 157.14 30.05 154.41C33.79 143.59 36.35 132.49 41.84 122.34C42.04 122.41 42.24 122.48 42.44 122.56C43.38 121.3 47.21 114.31 46.33 113.78C48.06 111.02 49.22 108.05 51.03 105.27C58.23 94.15 66.37 83.64 75.84 74.15C76.07 74.27 76.3 74.38 76.53 74.49C77.96 73.4 84.82 67.04 84.37 65.97C84.57 65.78 84.78 65.6 84.99 65.41C85.21 65.51 85.44 65.61 85.66 65.71C89.51 62.62 93.35 59.53 97.19 56.44C96.81 56.44 96.43 56.44 96.04 56.43C100.63 53.33 105.22 50.23 109.81 47.13C110.04 47.26 110.27 47.39 110.5 47.53C112.82 46.23 115.13 44.94 117.44 43.65C117.5 43.36 117.56 43.07 117.63 42.79C129.87 35.41 143.75 31.15 157.43 26.9C164.06 24.84 171.22 25.02 177.9 22.99C177.66 23.3 177.41 23.61 177.17 23.93C179.1 23.81 181.03 23.68 182.97 23.56C182.73 23.32 182.5 23.08 182.26 22.84C194.76 21.75 207.85 20.88 220.3 22.85ZM112 287.81C113.27 288.27 114.53 288.72 115.8 289.18C115.5 289.35 115.19 289.52 114.89 289.69C116.43 290.68 121.74 294.4 123.25 293.68C124.36 294.2 125.47 294.72 126.58 295.25C127 295.53 127.43 295.82 127.86 296.11C127.55 296.22 127.25 296.33 126.94 296.44C131.57 299.06 136.19 301.67 140.82 304.29C140.76 303.93 140.7 303.57 140.64 303.21C146.97 306.43 153.3 309.66 159.63 312.88C161.71 313.98 163.78 315.09 165.85 316.2C165.54 316.33 165.24 316.45 164.93 316.58C166.44 317.73 172.43 320.97 173.88 319.92C177.96 320.45 184.64 324.18 188.78 325.71C197.49 328.92 206.77 331.67 215.59 334.75C218.94 335.92 230.67 338.62 232.69 341C234.05 340.91 234.4 341.69 235.61 341.99C243.27 343.87 235.64 355.58 234.06 359.62C233.32 361.52 231.69 362.7 232.13 365.01C232.48 366.83 235.4 368.13 236.73 369.12C238.99 370.8 246.85 377.39 247.8 379.54C247.97 381.16 250.16 382.58 251.37 383.73C255.13 387.27 259.12 390.54 262.83 394.11C263.04 394.02 263.24 393.92 263.45 393.83C265.51 395.86 267.57 397.9 269.63 399.94C179.79 399.93 89.94 399.92 0.09 399.91C0.08 383.52 0.07 367.12 0.06 350.73C8.42 346.41 16.78 342.09 25.14 337.76C25.35 337.86 25.55 337.95 25.75 338.05C27.21 337.39 32.9 335.66 32.51 334.04C35.63 332.53 38.75 331.01 41.87 329.49C42.1 329.67 42.33 329.85 42.56 330.03C44.99 328.89 47.43 327.76 49.86 326.63C49.8 326.42 49.74 326.21 49.68 326C56.08 323.14 62.47 320.27 68.87 317.41C70.33 318.18 79.75 313.65 81.79 312.51C81.33 312.41 80.87 312.31 80.41 312.2C83.07 311.13 85.74 310.06 88.4 308.99C88.22 309.34 88.04 309.69 87.85 310.04C90.48 308.86 92.76 308.69 94.21 305.94C93.86 305.95 93.51 305.97 93.17 305.99C95.18 302.75 97.2 299.5 99.22 296.26C99.33 296.56 99.44 296.87 99.55 297.17C101.61 294.09 105.08 290.39 108.48 288.78C109.68 288.2 110.92 288.51 112 287.81Z" fill="#ffffff" fill-rule="evenodd" stroke="#ffffff" stroke-width="0.25" stroke-linejoin="round"/>
<path d="M50.82 291.14C51 290.84 51.18 290.53 51.36 290.23C52.47 292.2 59.32 301.72 58.42 302.28C58.07 302.53 57.72 302.77 57.36 303.01C59.2 305.85 67.39 314.3 67.03 316.84C65.21 317.62 63.38 318.4 61.55 319.18C58.01 316.66 54.14 310.18 51.64 306.52C47.69 300.73 43.57 294.99 40.07 288.89C36.36 282.43 33.79 275.32 30.62 268.75C24.11 255.27 19.82 237.07 18.02 222.27C17.74 219.97 18.04 217.65 17.79 215.35C15.92 198.14 16.12 179.31 20.14 162.43C20.4 161.36 21.31 160.41 21.54 159.44C22 157.56 21.52 155.4 22.07 153.37C26.93 135.62 33.6 118.2 43.59 102.61C51.15 90.8 60.81 75.49 71.96 67.03C73.28 63.37 82.27 57.34 85.49 54.62C94.93 46.62 105.58 39.64 116.43 34.05C120.33 32.04 124.7 30.67 128.56 28.63C139 23.15 153.74 19.37 165.43 16.98C168.62 16.33 172 16.51 175.16 15.79C189.4 12.56 205.35 13.43 219.84 14.8C269.12 19.47 310.35 42.39 343.19 79.64C361.34 100.22 373.2 125.63 380.13 151.54C381.64 157.19 383.76 163.34 384.02 169.32C384.1 171.07 385.22 173.86 384.29 174.79C385.87 176.43 386.03 188.06 386.05 190.87C386.15 206.43 385.77 221.67 382.23 236.6C381.39 240.18 381.13 243.95 380 247.48C371.79 273.21 360.06 296.49 342.84 317.82C335.43 327 326.31 334.46 317.53 342.17C309.49 349.24 300.17 355.68 290.7 360.35C279.97 365.64 269.91 370.83 258.61 374.26C255.05 375.34 251.37 377.25 247.49 377.21C245.83 375.61 244.17 374.02 242.51 372.42C246.09 369.74 251.23 370.35 255.14 368.57C262.42 365.27 270.46 362.97 277.68 359.64C302.14 348.36 325.78 329.68 342.55 307.65C362.13 281.94 374.73 251.59 378.8 219.36C379.11 216.91 378.77 214.4 379.01 211.94C379.16 210.36 379.81 208.91 379.9 207.31C380.34 200.02 379.78 192.79 378.99 185.63C378.67 182.79 379.23 179.81 378.75 176.99C377.97 172.32 376.93 167.37 375.92 162.73C375.7 161.69 376.04 160.56 375.74 159.55C373.18 150.85 370.65 142.22 367.74 133.58C367.06 131.57 365.58 129.66 364.85 127.66C356.13 103.68 334.17 75.23 313.26 59.92C300.11 50.29 287.68 40.9 272.34 35.15C270.36 34.41 268.45 32.95 266.41 32.28C252.07 27.51 238.1 23.86 223.01 21.29C220.2 20.81 217.2 21.33 214.35 21.02C195.72 18.97 170.83 20.97 153.59 27.02C149.69 28.38 145.46 28.79 141.63 30.41C131.49 34.7 121.41 39.42 111.72 44.38C100.69 50.03 91.6 58.89 81.9 66.74C73.94 73.19 66.68 81.31 60.4 89.44C58.1 92.41 56.32 95.81 54.05 98.77C48.18 106.39 43.99 114.93 40.03 123.55C13.77 180.77 18.51 248.43 54.98 299.67C55.59 296.42 51.22 294.11 50.82 291.14ZM182.26 22.84C182.5 23.08 182.73 23.32 182.97 23.56C181.03 23.68 179.1 23.81 177.17 23.93C177.41 23.61 177.66 23.3 177.9 22.99C179.35 22.94 180.81 22.89 182.26 22.84ZM225.81 23.32C225.61 23.57 225.41 23.82 225.21 24.07C222.66 23.78 220.12 23.49 217.57 23.2C218.48 23.08 219.39 22.96 220.3 22.85C222.05 22.85 223.81 22.86 225.57 22.86C225.65 23.01 225.73 23.17 225.81 23.32ZM188.55 28.59C188.47 28.73 188.39 28.87 188.31 29.01C186.54 29.05 184.78 29.09 183.01 29.12C182.28 28.97 181.55 28.82 180.82 28.68C183.2 28.39 185.57 28.1 187.95 27.82C188.15 28.07 188.35 28.33 188.55 28.59ZM222.83 28.92C220.4 28.8 217.96 28.67 215.53 28.55C215.59 28.33 215.65 28.12 215.71 27.9C218.32 28.16 220.94 28.42 223.56 28.68C223.31 28.76 223.07 28.84 222.83 28.92ZM117.63 42.79C117.56 43.07 117.5 43.36 117.44 43.65C115.13 44.94 112.82 46.23 110.5 47.53C110.27 47.39 110.04 47.26 109.81 47.13C112.42 45.68 115.02 44.23 117.63 42.79ZM294.06 47.8C294.42 47.88 294.78 47.96 295.13 48.04C295.26 48.28 295.39 48.52 295.53 48.77C297.14 49.8 298.76 50.83 300.38 51.87C300.4 52.13 300.43 52.39 300.46 52.65C298.26 51.24 296.07 49.83 293.88 48.43C293.94 48.22 294 48.01 294.06 47.8ZM84.99 65.41C88.67 62.42 92.36 59.43 96.04 56.43C96.43 56.44 96.81 56.44 97.19 56.44C93.35 59.53 89.51 62.62 85.66 65.71C85.44 65.61 85.21 65.51 84.99 65.41ZM317.46 64.87C318.61 66.14 319.76 67.41 320.91 68.68C322.37 69.88 323.82 71.09 325.28 72.3C325.04 72.41 324.8 72.51 324.57 72.62C322.1 70.27 319.63 67.92 317.17 65.57C317.26 65.34 317.36 65.11 317.46 64.87ZM84.37 65.97C84.82 67.04 77.96 73.4 76.53 74.49C76.3 74.38 76.07 74.27 75.84 74.15C78.68 71.43 81.52 68.7 84.37 65.97ZM328.04 75.11C328.65 75.95 329.26 76.79 329.86 77.63C331.86 79.52 333.86 81.41 335.86 83.3C335.75 83.6 335.63 83.9 335.51 84.2C332.88 81.4 330.25 78.6 327.62 75.8C327.76 75.57 327.9 75.34 328.04 75.11ZM347.06 98.57C348.69 100.78 350.31 102.98 351.94 105.19C351.82 105.5 351.71 105.81 351.6 106.12C349.78 103.44 347.96 100.76 346.14 98.08C346.45 98.24 346.76 98.41 347.06 98.57ZM46.33 113.78C47.21 114.31 43.38 121.3 42.44 122.56C42.24 122.48 42.04 122.41 41.84 122.34C43.34 119.48 44.84 116.63 46.33 113.78ZM27.39 167.89C28.64 168.72 26.96 178.95 25.91 180.09C25.61 178.3 26.36 168.93 27.39 167.89ZM376.39 174.19C376.53 174.07 376.67 173.96 376.8 173.85C376.88 175.2 376.95 176.55 377.02 177.9C376.83 178.94 376.63 179.98 376.44 181.02C376.26 179.23 375.24 175.42 376.39 174.19ZM371.46 184.84C371.28 184.66 371.1 184.47 370.91 184.29C370.91 183.5 370.9 182.71 370.89 181.92C371.03 180.03 371.18 178.14 371.32 176.26C371.64 179.06 371.96 181.86 372.28 184.66C372 184.72 371.73 184.78 371.46 184.84ZM25.11 212.97C25.11 203.47 25.12 193.97 25.12 184.47C25.46 184.17 25.79 183.87 26.13 183.56C26.14 193.42 26.14 203.29 26.15 213.15C25.8 213.09 25.45 213.03 25.11 212.97ZM31.09 191.78C31.11 197.02 31.13 202.25 31.15 207.49C30.89 207.43 30.62 207.37 30.35 207.31C30.4 200.83 30.45 194.35 30.5 187.88C30.7 189.18 30.89 190.48 31.09 191.78ZM371.52 210.78C371.98 210.84 372.43 210.9 372.88 210.96C372.36 213.7 371.84 216.44 371.32 219.18C371.18 218.33 371.04 217.47 370.9 216.62C371.11 214.67 371.32 212.72 371.52 210.78ZM377.02 218.45C377.01 219.67 377.01 220.88 377 222.1C376.69 222.22 376.38 222.34 376.07 222.47C376.19 220.76 376.32 219.06 376.44 217.35C376.63 217.72 376.82 218.08 377.02 218.45ZM45.27 281.49C44.13 279.22 43 276.95 41.86 274.67C41.97 274.29 42.08 273.91 42.19 273.53C43.46 275.93 44.73 278.33 46 280.73C45.76 280.98 45.51 281.24 45.27 281.49ZM357.19 282.37C356.55 283.47 355.9 284.57 355.25 285.66C355.13 286.15 355.01 286.64 354.89 287.12C354.7 287.16 354.51 287.2 354.33 287.23C354.13 287.14 353.93 287.04 353.74 286.94C354.73 285.12 355.72 283.3 356.71 281.48C356.87 281.78 357.03 282.07 357.19 282.37ZM112 287.81C110.92 288.51 109.68 288.2 108.48 288.78C105.08 290.39 101.61 294.09 99.55 297.17C99.44 296.87 99.33 296.56 99.22 296.26C101.89 291.87 106.15 289.07 110.5 286.94C111 287.23 111.5 287.52 112 287.81ZM115.8 289.18C118.28 290.68 120.77 292.18 123.25 293.68C121.74 294.4 116.43 290.68 114.89 289.69C115.19 289.52 115.5 289.35 115.8 289.18ZM127.86 296.11C132.12 298.48 136.38 300.85 140.64 303.21C140.7 303.57 140.76 303.93 140.82 304.29C136.19 301.67 131.57 299.06 126.94 296.44C127.25 296.33 127.55 296.22 127.86 296.11ZM343.93 303.61C341.68 306.31 339.43 309.01 337.18 311.71C336.75 311.92 336.32 312.12 335.89 312.33C338.33 309.26 340.76 306.18 343.2 303.11C343.44 303.27 343.68 303.44 343.93 303.61ZM88.4 308.99C89.07 308.61 89.74 308.23 90.41 307.85C91.33 307.23 92.25 306.61 93.17 305.99C93.51 305.97 93.86 305.95 94.21 305.94C92.76 308.69 90.48 308.86 87.85 310.04C88.04 309.69 88.22 309.34 88.4 308.99ZM70.91 307.76C72.32 309.34 73.74 310.93 75.15 312.51C74.72 312.89 74.28 313.27 73.84 313.64C72.55 311.68 71.25 309.72 69.95 307.76C70.27 307.76 70.59 307.76 70.91 307.76ZM80.41 312.2C80.87 312.31 81.33 312.41 81.79 312.51C79.75 313.65 70.33 318.18 68.87 317.41C72.72 315.67 76.56 313.94 80.41 312.2ZM165.85 316.2C168.24 317.16 170.64 318.12 173.03 319.09C173.31 319.36 173.6 319.64 173.88 319.92C172.43 320.97 166.44 317.73 164.93 316.58C165.24 316.45 165.54 316.33 165.85 316.2ZM328.88 321.05C327.38 322.35 325.88 323.64 324.38 324.93C321.81 327.6 319.24 330.27 316.67 332.93C316.38 332.78 316.09 332.62 315.8 332.47C319.94 328.54 324.08 324.6 328.22 320.67C328.44 320.8 328.66 320.92 328.88 321.05ZM49.68 326C49.74 326.21 49.8 326.42 49.86 326.63C47.43 327.76 44.99 328.89 42.56 330.03C42.33 329.85 42.1 329.67 41.87 329.49C43.13 328.94 44.4 328.4 45.66 327.85C47 327.24 48.34 326.62 49.68 326ZM32.51 334.04C32.9 335.66 27.21 337.39 25.75 338.05C25.55 337.95 25.35 337.86 25.14 337.76C27.6 336.52 30.06 335.28 32.51 334.04ZM301.74 344.11C299.3 345.8 296.86 347.49 294.43 349.19C294.07 349.02 293.7 348.85 293.34 348.68C296.19 346.85 299.05 345.02 301.91 343.2C301.85 343.5 301.79 343.8 301.74 344.11ZM239.21 364.76C239.17 365.03 239.13 365.3 239.09 365.57C238.55 365.91 238.02 366.24 237.48 366.58C237.84 368.42 240.25 369.7 242.01 369.78C242.02 370.01 242.02 370.23 242.03 370.46C241.41 370.67 240.8 370.89 240.18 371.1C239.76 370.44 239.33 369.79 238.9 369.13C237.37 369.33 235.76 366.77 235.14 365.48C236.5 365.24 237.86 365 239.21 364.76ZM247.8 379.54C249.34 381.07 250.88 382.59 252.42 384.11C253.64 383.91 262.55 392.08 263.45 393.83C263.24 393.92 263.04 394.02 262.83 394.11C259.12 390.54 255.13 387.27 251.37 383.73C250.16 382.58 247.97 381.16 247.8 379.54Z" fill="#ffffff" fill-rule="evenodd" stroke="#ffffff" stroke-width="0.25" stroke-linejoin="round"/>
</svg>